<?xml version="1.0" standalone="no"?>
<!DOCTYPE svg PUBLIC "-//W3C//DTD SVG 20010904//EN"
 "http://www.w3.org/TR/2001/REC-SVG-20010904/DTD/svg10.dtd">
<svg version="1.0" xmlns="http://www.w3.org/2000/svg"
 width="600.000000pt" height="371.000000pt" viewBox="0 0 600.000000 371.000000"
 preserveAspectRatio="xMidYMid meet">
<metadata>
Created by potrace 1.15, written by Peter Selinger 2001-2017
</metadata>
<g transform="translate(0.000000,371.000000) scale(0.100000,-0.100000)"
fill="#ffffff" stroke="none">
<path d="M2500 2440 l0 -130 448 0 447 -1 140 -133 140 -134 -129 -124 c-71
-67 -138 -126 -149 -131 -11 -4 -217 -6 -458 -5 l-439 3 0 -122 0 -123 507 0
507 0 168 167 167 167 178 -177 178 -177 175 0 175 0 -263 263 -263 264 268
261 268 261 -170 1 -170 0 -70 -67 c-38 -37 -121 -117 -183 -177 l-112 -111
-178 178 -177 177 -503 0 -502 0 0 -130z"/>
<path d="M1510 2045 l0 -515 125 0 125 0 0 515 0 515 -125 0 -125 0 0 -515z"/>
<path d="M1790 2436 l0 -123 88 -6 c213 -14 350 -84 388 -200 19 -58 15 -138
-11 -186 -39 -77 -160 -126 -348 -144 l-118 -10 3 -120 3 -120 90 2 c50 1 135
11 190 22 215 43 372 155 424 303 l23 66 464 0 464 0 0 130 0 130 -465 0 -466
0 -20 47 c-24 55 -93 155 -140 201 -83 81 -259 132 -456 132 l-113 0 0 -124z"/>
</g>
</svg>
