<?xml version="1.0" standalone="no"?>
<!DOCTYPE svg PUBLIC "-//W3C//DTD SVG 20010904//EN"
 "http://www.w3.org/TR/2001/REC-SVG-20010904/DTD/svg10.dtd">
<svg version="1.0" xmlns="http://www.w3.org/2000/svg"
 width="1000.000000pt" height="1000.000000pt" viewBox="0 0 1000.000000 1000.000000"
 preserveAspectRatio="xMidYMid meet">
<metadata>
Created by potrace 1.15, written by Peter Selinger 2001-2017
</metadata>
<g transform="translate(0.000000,1000.000000) scale(0.100000,-0.100000)"
fill="#ffffff" stroke="none">
<path d="M2133 8100 c-151 -7 -148 -4 -157 -168 -7 -153 3 -229 34 -254 20
-16 48 -18 315 -18 351 0 361 -2 410 -99 20 -40 27 -388 45 -2186 26 -2636 27
-2759 13 -2775 -11 -12 -63 -16 -307 -20 -242 -4 -295 -8 -307 -20 -8 -8 -38
-65 -67 -125 l-53 -111 3 -161 c3 -140 5 -165 21 -180 17 -17 95 -18 1600 -18
1461 0 1595 1 1747 18 538 59 917 149 1218 289 46 21 85 38 87 38 14 0 215
123 298 182 131 93 241 196 379 356 96 110 251 379 331 572 130 312 182 526
233 940 22 182 31 892 14 1150 -14 228 -45 502 -71 630 -6 30 -15 76 -19 101
-16 90 -72 296 -112 414 -115 337 -263 587 -472 798 -145 146 -281 244 -468
338 -278 140 -558 217 -958 263 -430 51 -382 50 -2065 51 -869 0 -1630 -2
-1692 -5z m4195 -140 c296 -72 522 -169 737 -316 64 -44 233 -192 275 -240 13
-16 -5 -1 -40 32 -274 259 -558 406 -1000 518 -74 19 -126 35 -115 35 11 1 75
-12 143 -29z m-1318 -410 c258 -9 370 -22 560 -64 358 -79 618 -287 774 -621
142 -302 219 -718 257 -1390 12 -221 6 -865 -11 -1065 -29 -354 -77 -631 -151
-884 -16 -51 -23 -66 -31 -55 -7 10 -8 8 -3 -7 3 -12 -3 -44 -14 -70 -19 -46
-20 -47 -22 -19 -1 17 -1 32 -1 35 0 3 -11 6 -26 7 -24 2 -24 1 -7 -7 11 -5
15 -9 10 -9 -15 -1 -16 -44 -2 -54 8 -6 6 -7 -5 -3 -19 6 -36 -18 -44 -61 -4
-22 -2 -25 19 -21 24 5 24 4 12 -26 -9 -21 -20 -30 -32 -28 -14 2 -15 1 -4 -7
11 -7 7 -21 -22 -74 -20 -35 -49 -78 -64 -95 -16 -17 -29 -36 -31 -44 -5 -20
-54 -68 -69 -68 -8 0 -12 -4 -8 -10 3 -5 -3 -18 -15 -30 -26 -26 -26 -3 0 30
21 27 26 45 10 35 -13 -8 9 44 28 67 19 22 35 13 22 -12 -13 -25 -13 -47 0
-34 6 6 12 24 13 41 2 25 5 29 15 20 7 -6 12 -6 11 -1 -4 14 12 58 25 67 7 6
4 7 -6 3 -10 -3 -18 -1 -18 5 0 6 -5 7 -12 3 -9 -6 -9 -9 -1 -11 7 -3 9 -11 6
-19 -5 -13 -7 -13 -15 -2 -8 11 -10 11 -15 0 -3 -7 -16 -18 -30 -23 -14 -5
-23 -12 -19 -16 3 -3 1 -12 -5 -19 -8 -10 -15 -11 -30 -1 -16 10 -24 7 -53
-22 -96 -93 -345 -209 -556 -260 -140 -33 -441 -51 -869 -51 -351 0 -367 3
-403 66 -31 53 -37 121 -39 475 -3 365 -6 438 -20 404 -5 -12 -8 8 -8 55 0 51
3 69 9 55 6 -15 9 -7 9 30 1 37 -2 46 -9 35 -8 -11 -10 8 -9 65 0 44 -4 350
-10 680 -7 458 -25 2710 -22 2867 0 37 35 102 67 127 27 21 36 21 313 21 157
-1 405 -5 551 -10z"/>
</g>
</svg>
